# xmcd CD database file
#
# Track frame offsets:
#	150
#	19200
#	32092
#	45680
#	63910
#	79407
#	98590
#	116740
#	133625
#	151180
#	169725
#	185647
#	201657
#	216302
#	232649
#
# Disc length: 3298 seconds
#
# Revision: 2
# Processed by: cddbd v1.5.2PL0 Copyright (c) Steve Scherf et al.
# Submitted via: CDex 1.90
#
DISCID=cd0ce00f
DTITLE=Kenny G - I'm in the Mood for Love...
DYEAR=2007
DGENRE=Jazz
TTITLE0=You're Beautiful
TTITLE1=The Way We Were
TTITLE2=Yesterday
TTITLE3=I'm In The Mood For Love
TTITLE4=If
TTITLE5=The Way You Look Tonight
TTITLE6=If I Ain't Got You
TTITLE7=Love Theme From "Romeo and Juliet"
TTITLE8=It Had To Be You
TTITLE9=The Shadow Of Your Smile
TTITLE10=Fly Me To The Moon - You Make Me Feel So Young
TTITLE11=As Time Goes By
TTITLE12=You Raise Me Up
TTITLE13=The Moon Represents My Heart
TTITLE14=Voyagers - East Meets West
EXTD=YEAR: 2007
EXTT0=
EXTT1=
EXTT2=
EXTT3=
EXTT4=
EXTT5=
EXTT6=
EXTT7=
EXTT8=
EXTT9=
EXTT10=
EXTT11=
EXTT12=
EXTT13=
EXTT14=
PLAYORDER=
